<mxfile host="65bd71144e">
    <diagram id="6YwQQIW8eCQRHDkm4CSs" name="Page-1">
        <mxGraphModel dx="1130" dy="523" grid="1" gridSize="10" guides="1" tooltips="1" connect="1" arrows="1" fold="1" page="1" pageScale="1" pageWidth="827" pageHeight="1169" math="0" shadow="0">
            <root>
                <mxCell id="0"/>
                <mxCell id="1" parent="0"/>
                <mxCell id="DnkCzbvQFBXvj7n7dTfT-9" value="" style="edgeStyle=orthogonalEdgeStyle;rounded=0;orthogonalLoop=1;jettySize=auto;html=1;" parent="1" target="DnkCzbvQFBXvj7n7dTfT-2" edge="1">
                    <mxGeometry relative="1" as="geometry">
                        <mxPoint x="390" y="70" as="sourcePoint"/>
                    </mxGeometry>
                </mxCell>
                <mxCell id="DnkCzbvQFBXvj7n7dTfT-8" value="" style="edgeStyle=orthogonalEdgeStyle;rounded=0;orthogonalLoop=1;jettySize=auto;html=1;startArrow=none;" parent="1" source="3" target="DnkCzbvQFBXvj7n7dTfT-3" edge="1">
                    <mxGeometry relative="1" as="geometry"/>
                </mxCell>
                <mxCell id="DnkCzbvQFBXvj7n7dTfT-2" value="arrIN[]&lt;br&gt;limit" style="shape=parallelogram;perimeter=parallelogramPerimeter;whiteSpace=wrap;html=1;fixedSize=1;" parent="1" vertex="1">
                    <mxGeometry x="330" y="120" width="120" height="60" as="geometry"/>
                </mxCell>
                <mxCell id="DnkCzbvQFBXvj7n7dTfT-7" value="" style="edgeStyle=orthogonalEdgeStyle;rounded=0;orthogonalLoop=1;jettySize=auto;html=1;" parent="1" source="DnkCzbvQFBXvj7n7dTfT-3" target="DnkCzbvQFBXvj7n7dTfT-4" edge="1">
                    <mxGeometry relative="1" as="geometry"/>
                </mxCell>
                <mxCell id="DnkCzbvQFBXvj7n7dTfT-3" value="i = 0, i &amp;lt; arrIN.length" style="shape=hexagon;perimeter=hexagonPerimeter2;whiteSpace=wrap;html=1;fixedSize=1;" parent="1" vertex="1">
                    <mxGeometry x="280" y="320" width="220" height="80" as="geometry"/>
                </mxCell>
                <mxCell id="B7fp_Nzf1htRCQnwWERk-2" value="" style="edgeStyle=orthogonalEdgeStyle;rounded=0;orthogonalLoop=1;jettySize=auto;html=1;exitX=0.5;exitY=1;exitDx=0;exitDy=0;entryX=1;entryY=0.5;entryDx=0;entryDy=0;" parent="1" source="DnkCzbvQFBXvj7n7dTfT-4" target="DnkCzbvQFBXvj7n7dTfT-5" edge="1">
                    <mxGeometry relative="1" as="geometry"/>
                </mxCell>
                <mxCell id="DnkCzbvQFBXvj7n7dTfT-4" value="if (arrIN[i].length &amp;lt;= limit)" style="rhombus;whiteSpace=wrap;html=1;" parent="1" vertex="1">
                    <mxGeometry x="277.5" y="440" width="225" height="80" as="geometry"/>
                </mxCell>
                <mxCell id="DnkCzbvQFBXvj7n7dTfT-17" value="" style="edgeStyle=orthogonalEdgeStyle;rounded=0;orthogonalLoop=1;jettySize=auto;html=1;entryX=0;entryY=0.5;entryDx=0;entryDy=0;exitX=0.5;exitY=0;exitDx=0;exitDy=0;" parent="1" source="DnkCzbvQFBXvj7n7dTfT-5" target="DnkCzbvQFBXvj7n7dTfT-3" edge="1">
                    <mxGeometry relative="1" as="geometry"/>
                </mxCell>
                <mxCell id="DnkCzbvQFBXvj7n7dTfT-5" value="arrOUT[count] = arrIN[i]&lt;br&gt;count++" style="whiteSpace=wrap;html=1;" parent="1" vertex="1">
                    <mxGeometry x="52.5" y="550" width="177.5" height="50" as="geometry"/>
                </mxCell>
                <mxCell id="B7fp_Nzf1htRCQnwWERk-4" value="" style="endArrow=classic;html=1;rounded=0;exitX=0;exitY=0.5;exitDx=0;exitDy=0;" parent="1" source="DnkCzbvQFBXvj7n7dTfT-4" edge="1">
                    <mxGeometry width="50" height="50" relative="1" as="geometry">
                        <mxPoint x="510" y="370" as="sourcePoint"/>
                        <mxPoint x="140" y="480" as="targetPoint"/>
                        <Array as="points">
                            <mxPoint x="240" y="480"/>
                        </Array>
                    </mxGeometry>
                </mxCell>
                <mxCell id="B7fp_Nzf1htRCQnwWERk-6" value="Да" style="text;html=1;align=center;verticalAlign=middle;resizable=0;points=[];autosize=1;strokeColor=none;fillColor=none;" parent="1" vertex="1">
                    <mxGeometry x="350" y="530" width="40" height="30" as="geometry"/>
                </mxCell>
                <mxCell id="B7fp_Nzf1htRCQnwWERk-10" value="Нет" style="text;html=1;align=center;verticalAlign=middle;resizable=0;points=[];autosize=1;strokeColor=none;fillColor=none;" parent="1" vertex="1">
                    <mxGeometry x="240" y="455" width="40" height="30" as="geometry"/>
                </mxCell>
                <mxCell id="2" value="Начало" style="ellipse;whiteSpace=wrap;html=1;" vertex="1" parent="1">
                    <mxGeometry x="330" width="120" height="80" as="geometry"/>
                </mxCell>
                <mxCell id="4" value="" style="edgeStyle=orthogonalEdgeStyle;rounded=0;orthogonalLoop=1;jettySize=auto;html=1;endArrow=none;" edge="1" parent="1" source="DnkCzbvQFBXvj7n7dTfT-2" target="3">
                    <mxGeometry relative="1" as="geometry">
                        <mxPoint x="390" y="180" as="sourcePoint"/>
                        <mxPoint x="390" y="320" as="targetPoint"/>
                    </mxGeometry>
                </mxCell>
                <mxCell id="3" value="arrOUT[]&lt;br&gt;count = 0" style="rounded=0;whiteSpace=wrap;html=1;" vertex="1" parent="1">
                    <mxGeometry x="330" y="220" width="120" height="60" as="geometry"/>
                </mxCell>
                <mxCell id="5" value="print arrOUT" style="shape=document;whiteSpace=wrap;html=1;boundedLbl=1;" vertex="1" parent="1">
                    <mxGeometry x="502.5" y="600" width="120" height="80" as="geometry"/>
                </mxCell>
                <mxCell id="6" value="" style="endArrow=classic;html=1;entryX=0.5;entryY=0;entryDx=0;entryDy=0;exitX=1;exitY=0.5;exitDx=0;exitDy=0;rounded=0;" edge="1" parent="1" source="DnkCzbvQFBXvj7n7dTfT-3" target="5">
                    <mxGeometry width="50" height="50" relative="1" as="geometry">
                        <mxPoint x="390" y="590" as="sourcePoint"/>
                        <mxPoint x="440" y="540" as="targetPoint"/>
                        <Array as="points">
                            <mxPoint x="560" y="360"/>
                        </Array>
                    </mxGeometry>
                </mxCell>
                <mxCell id="7" value="Конец" style="ellipse;whiteSpace=wrap;html=1;" vertex="1" parent="1">
                    <mxGeometry x="330" y="750" width="120" height="80" as="geometry"/>
                </mxCell>
                <mxCell id="8" value="" style="endArrow=classic;html=1;rounded=0;entryX=0.5;entryY=0;entryDx=0;entryDy=0;" edge="1" parent="1" source="5" target="7">
                    <mxGeometry width="50" height="50" relative="1" as="geometry">
                        <mxPoint x="390" y="690" as="sourcePoint"/>
                        <mxPoint x="440" y="640" as="targetPoint"/>
                        <Array as="points">
                            <mxPoint x="563" y="720"/>
                            <mxPoint x="390" y="720"/>
                        </Array>
                    </mxGeometry>
                </mxCell>
            </root>
        </mxGraphModel>
    </diagram>
</mxfile>